<?xml version="1.0" encoding="UTF-8" standalone="no"?>
<!DOCTYPE svg PUBLIC "-//W3C//DTD SVG 1.1//EN" "http://www.w3.org/Graphics/SVG/1.1/DTD/svg11.dtd">
<svg width="100%" height="100%" viewBox="0 0 1022 56" version="1.1" xmlns="http://www.w3.org/2000/svg" xmlns:xlink="http://www.w3.org/1999/xlink" xml:space="preserve" xmlns:serif="http://www.serif.com/" style="fill-rule:evenodd;clip-rule:evenodd;stroke-linejoin:round;stroke-miterlimit:2;">
    <g id="ArtBoard1" transform="matrix(0.997071,0,0,0.281407,0.186512,-112.844)">
        <rect x="-0.187" y="401" width="1024.19" height="199" style="fill:none;"/>
        <clipPath id="_clip1">
            <rect x="-0.187" y="401" width="1024.19" height="199"/>
        </clipPath>
        <g clip-path="url(#_clip1)">
            <g transform="matrix(1.00294,0,0,2.57583,-0.37467,259.161)">
                <path d="M-0.065,90.935C-0.065,90.935 128.056,126.925 369,119C556.786,112.823 625.067,77.548 778,83.347C912.015,88.429 1023.58,106.464 1024,106C1024.42,105.536 1024,260.623 1024,260.623L0,260.623L-0.065,90.935Z" style="fill:rgb(36,36,36);"/>
            </g>
            <g transform="matrix(-1.00294,0,0,2.55689,1026.82,203.686)">
                <path d="M0,95.237C0,95.237 241.056,117.755 325,122.338C512.694,132.586 594.067,99.861 747,105.66C881.015,110.742 1023.58,106.464 1024,106C1024.42,105.536 1024.19,284.25 1024.19,284.25L0,284.25L0,95.237Z" style="fill:rgb(36,36,36);fill-opacity:0.42;"/>
            </g>
            <g transform="matrix(-1.00294,0,0,2.55689,1026.82,203.686)">
                <path d="M-94.065,116.084C-94.065,116.084 36.594,99.929 236.537,92.004C424.299,84.562 1023.83,155.463 1024.25,154.998C1024.67,154.534 1024.19,284.25 1024.19,284.25L0,284.25L-94.065,116.084Z" style="fill:rgb(36,36,36);fill-opacity:0.42;"/>
            </g>
        </g>
    </g>
</svg>
